<svg xmlns="http://www.w3.org/2000/svg" width="209" height="61" viewBox="0 0 209 61" fill="none"><path d="M1 25.4466V5.53174L18.4563 15.1204V35.0353L1 25.4466Z" stroke="white"/><path d="M18.6157 55.3163L1.3689 45.3589L18.401 35.0356L35.6478 44.9931L18.6157 55.3163Z" stroke="white"/><path d="M35.5437 44.993V25.0781L53 34.6668V54.5817L35.5437 44.993Z" stroke="white"/><path d="M35.6133 25.0751L18.3665 15.1177L35.3986 4.79443L52.6454 14.7519L35.6133 25.0751Z" stroke="white"/><path d="M186.099 48.4V29.315C186.099 27.665 185.86 26.345 185.384 25.355C184.944 24.3283 183.899 23.815 182.249 23.815H181.314V22.55H186.374C187.73 22.55 188.757 22.7333 189.454 23.1C190.187 23.4667 190.719 23.9983 191.049 24.695C191.782 24.0717 192.772 23.4667 194.019 22.88C195.302 22.2933 196.842 22 198.639 22C200.399 22 201.994 22.2933 203.424 22.88C204.89 23.4667 206.064 24.475 206.944 25.905C207.824 27.335 208.264 29.3517 208.264 31.955V48.4H202.764V31.955C202.764 30.1217 202.489 28.6733 201.939 27.61C201.389 26.51 200.674 25.7217 199.794 25.245C198.914 24.7683 197.96 24.53 196.934 24.53C195.834 24.53 194.825 24.7867 193.909 25.3C193.029 25.8133 192.277 26.4 191.654 27.06V48.4H186.099Z" fill="white"/><path d="M166.676 48.95C164.073 48.95 161.836 48.345 159.966 47.135C158.133 45.925 156.721 44.2933 155.731 42.24C154.778 40.1867 154.301 37.9317 154.301 35.475C154.301 32.9817 154.778 30.7267 155.731 28.71C156.721 26.6567 158.133 25.025 159.966 23.815C161.836 22.605 164.073 22 166.676 22C169.28 22 171.498 22.605 173.331 23.815C175.201 25.025 176.613 26.6567 177.566 28.71C178.556 30.7267 179.051 32.9817 179.051 35.475C179.051 37.9317 178.556 40.1867 177.566 42.24C176.613 44.2933 175.201 45.925 173.331 47.135C171.498 48.345 169.28 48.95 166.676 48.95ZM166.676 46.695C168.033 46.695 169.206 46.2 170.196 45.21C171.186 44.1833 171.938 42.8267 172.451 41.14C173.001 39.4533 173.276 37.565 173.276 35.475C173.276 33.3483 173.001 31.46 172.451 29.81C171.938 28.1233 171.186 26.785 170.196 25.795C169.206 24.7683 168.033 24.255 166.676 24.255C165.32 24.255 164.146 24.7683 163.156 25.795C162.166 26.785 161.396 28.1233 160.846 29.81C160.333 31.46 160.076 33.3483 160.076 35.475C160.076 37.565 160.333 39.4533 160.846 41.14C161.396 42.8267 162.166 44.1833 163.156 45.21C164.146 46.2 165.32 46.695 166.676 46.695Z" fill="white"/><path d="M142.808 48.4002V29.3152C142.808 27.6652 142.569 26.3452 142.093 25.3552C141.653 24.3285 140.608 23.8152 138.958 23.8152H138.023V22.5502H143.358C144.641 22.5502 145.631 22.7335 146.328 23.1002C147.061 23.4668 147.574 24.1452 147.868 25.1352C148.161 26.0885 148.308 27.4818 148.308 29.3152V48.4002H142.808ZM145.283 19.3602C144.293 19.3602 143.486 18.9935 142.863 18.2602C142.239 17.4902 141.928 16.6102 141.928 15.6202C141.928 14.8135 142.166 14.1902 142.643 13.7502C143.156 13.2735 143.798 13.0352 144.568 13.0352C145.558 13.0352 146.364 13.4018 146.988 14.1352C147.611 14.8685 147.923 15.7302 147.923 16.7202C147.923 17.5268 147.666 18.1685 147.153 18.6452C146.676 19.1218 146.053 19.3602 145.283 19.3602Z" fill="white"/><path d="M120.404 48.4V29.315C120.404 27.665 120.166 26.345 119.689 25.355C119.249 24.3283 118.204 23.815 116.554 23.815H116.004V22.55H120.679C122.036 22.55 123.062 22.7517 123.759 23.155C124.492 23.5217 125.024 24.1083 125.354 24.915C125.977 24.2917 126.876 23.65 128.049 22.99C129.259 22.33 130.652 22 132.229 22C132.852 22 133.476 22.0733 134.099 22.22C134.759 22.3667 135.291 22.5867 135.694 22.88C136.171 23.21 136.556 23.6133 136.849 24.09C137.142 24.53 137.399 24.9517 137.619 25.355L135.254 27.17C134.851 26.62 134.282 26.18 133.549 25.85C132.816 25.52 131.972 25.355 131.019 25.355C129.882 25.355 128.874 25.5933 127.994 26.07C127.114 26.51 126.399 27.0967 125.849 27.83C125.886 28.16 125.904 28.5083 125.904 28.875C125.904 29.2417 125.904 29.535 125.904 29.755V48.4H120.404Z" fill="white"/><path d="M96.325 49.5C92.805 49.5 89.7433 48.6567 87.14 46.97C84.5367 45.2467 82.52 42.9367 81.09 40.04C79.6967 37.1067 79 33.8433 79 30.25C79 26.6567 79.6967 23.4117 81.09 20.515C82.52 17.5817 84.5367 15.2717 87.14 13.585C89.7433 11.8617 92.805 11 96.325 11C99.845 11 102.888 11.8617 105.455 13.585C108.058 15.2717 110.075 17.5817 111.505 20.515C112.935 23.4117 113.65 26.6567 113.65 30.25C113.65 33.8433 112.935 37.1067 111.505 40.04C110.075 42.9367 108.058 45.2467 105.455 46.97C102.888 48.6567 99.845 49.5 96.325 49.5ZM96.325 47.245C98.7083 47.245 100.725 46.5667 102.375 45.21C104.062 43.8167 105.345 41.855 106.225 39.325C107.142 36.795 107.6 33.77 107.6 30.25C107.6 26.73 107.142 23.705 106.225 21.175C105.345 18.645 104.062 16.7017 102.375 15.345C100.725 13.9517 98.7083 13.255 96.325 13.255C93.9783 13.255 91.9617 13.9517 90.275 15.345C88.5883 16.7017 87.2867 18.645 86.37 21.175C85.49 23.705 85.05 26.73 85.05 30.25C85.05 33.77 85.49 36.795 86.37 39.325C87.2867 41.855 88.5883 43.8167 90.275 45.21C91.9617 46.5667 93.9783 47.245 96.325 47.245Z" fill="white"/></svg>