<svg xmlns="http://www.w3.org/2000/svg" width="200" height="57" viewBox="0 0 200 57" fill="none"><path d="M174.592 46.7615V28.8006C174.592 27.2478 174.368 26.0055 173.919 25.0738C173.505 24.1076 172.521 23.6245 170.969 23.6245H170.089V22.434H174.851C176.127 22.434 177.094 22.6066 177.749 22.9517C178.439 23.2967 178.94 23.7971 179.25 24.4527C179.941 23.8661 180.872 23.2967 182.045 22.7446C183.253 22.1925 184.702 21.9164 186.393 21.9164C188.05 21.9164 189.551 22.1925 190.896 22.7446C192.277 23.2967 193.381 24.2457 194.209 25.5914C195.037 26.9372 195.451 28.8351 195.451 31.2851V46.7615H190.275V31.2851C190.275 29.5598 190.017 28.1967 189.499 27.196C188.981 26.1608 188.308 25.4189 187.48 24.9703C186.652 24.5217 185.755 24.2974 184.789 24.2974C183.754 24.2974 182.805 24.539 181.942 25.0221C181.114 25.5052 180.406 26.0573 179.82 26.6784V46.7615H174.592Z" fill="black"/><path d="M156.313 47.2791C153.863 47.2791 151.758 46.7098 149.999 45.571C148.273 44.4323 146.945 42.8967 146.013 40.9643C145.116 39.0319 144.667 36.9098 144.667 34.5978C144.667 32.2513 145.116 30.1291 146.013 28.2312C146.945 26.2988 148.273 24.7633 149.999 23.6245C151.758 22.4858 153.863 21.9164 156.313 21.9164C158.763 21.9164 160.851 22.4858 162.576 23.6245C164.336 24.7633 165.665 26.2988 166.562 28.2312C167.494 30.1291 167.96 32.2513 167.96 34.5978C167.96 36.9098 167.494 39.0319 166.562 40.9643C165.665 42.8967 164.336 44.4323 162.576 45.571C160.851 46.7098 158.763 47.2791 156.313 47.2791ZM156.313 45.1569C157.59 45.1569 158.694 44.6911 159.626 43.7594C160.558 42.7932 161.265 41.5164 161.748 39.9291C162.266 38.3418 162.525 36.5647 162.525 34.5978C162.525 32.5964 162.266 30.8193 161.748 29.2664C161.265 27.6791 160.558 26.4196 159.626 25.4879C158.694 24.5217 157.59 24.0386 156.313 24.0386C155.037 24.0386 153.932 24.5217 153.001 25.4879C152.069 26.4196 151.344 27.6791 150.827 29.2664C150.344 30.8193 150.102 32.5964 150.102 34.5978C150.102 36.5647 150.344 38.3418 150.827 39.9291C151.344 41.5164 152.069 42.7932 153.001 43.7594C153.932 44.6911 155.037 45.1569 156.313 45.1569Z" fill="black"/><path d="M133.851 46.7615V28.8006C133.851 27.2477 133.626 26.0055 133.178 25.0738C132.764 24.1076 131.78 23.6245 130.227 23.6245H129.347V22.434H134.368C135.576 22.434 136.508 22.6065 137.163 22.9516C137.853 23.2967 138.337 23.9351 138.613 24.8668C138.889 25.7639 139.027 27.0752 139.027 28.8006V46.7615H133.851ZM136.18 19.4319C135.248 19.4319 134.489 19.0868 133.902 18.3967C133.316 17.672 133.022 16.8439 133.022 15.9122C133.022 15.153 133.247 14.5664 133.695 14.1523C134.178 13.7037 134.782 13.4794 135.507 13.4794C136.439 13.4794 137.198 13.8245 137.784 14.5146C138.371 15.2048 138.664 16.0157 138.664 16.9474C138.664 17.7065 138.423 18.3104 137.94 18.759C137.491 19.2076 136.904 19.4319 136.18 19.4319Z" fill="black"/><path d="M112.766 46.7615V28.8006C112.766 27.2478 112.542 26.0055 112.093 25.0738C111.679 24.1076 110.696 23.6245 109.143 23.6245H108.625V22.434H113.025C114.302 22.434 115.268 22.6238 115.924 23.0034C116.614 23.3485 117.114 23.9006 117.425 24.6598C118.011 24.0731 118.857 23.4693 119.961 22.8481C121.1 22.227 122.411 21.9164 123.895 21.9164C124.481 21.9164 125.068 21.9855 125.655 22.1235C126.276 22.2615 126.776 22.4686 127.156 22.7446C127.604 23.0552 127.967 23.4348 128.243 23.8833C128.519 24.2974 128.76 24.6943 128.967 25.0738L126.742 26.7819C126.362 26.2643 125.827 25.8502 125.137 25.5397C124.447 25.2291 123.653 25.0738 122.756 25.0738C121.686 25.0738 120.737 25.2981 119.909 25.7467C119.081 26.1608 118.408 26.7129 117.891 27.4031C117.925 27.7136 117.942 28.0414 117.942 28.3865C117.942 28.7316 117.942 29.0076 117.942 29.2147V46.7615H112.766Z" fill="black"/><path d="M90.1056 47.7967C86.7929 47.7967 83.9116 47.0031 81.4616 45.4158C79.0116 43.7939 77.1137 41.62 75.7679 38.8939C74.4567 36.1334 73.801 33.0622 73.801 29.6805C73.801 26.2988 74.4567 23.245 75.7679 20.5189C77.1137 17.7583 79.0116 15.5844 81.4616 13.9971C83.9116 12.3752 86.7929 11.5643 90.1056 11.5643C93.4183 11.5643 96.2824 12.3752 98.6979 13.9971C101.148 15.5844 103.046 17.7583 104.392 20.5189C105.737 23.245 106.41 26.2988 106.41 29.6805C106.41 33.0622 105.737 36.1334 104.392 38.8939C103.046 41.62 101.148 43.7939 98.6979 45.4158C96.2824 47.0031 93.4183 47.7967 90.1056 47.7967ZM90.1056 45.6746C92.3486 45.6746 94.2465 45.0362 95.7993 43.7594C97.3866 42.4481 98.5943 40.602 99.4225 38.221C100.285 35.84 100.717 32.9932 100.717 29.6805C100.717 26.3679 100.285 23.521 99.4225 21.14C98.5943 18.7591 97.3866 16.9302 95.7993 15.6534C94.2465 14.3421 92.3486 13.6865 90.1056 13.6865C87.8972 13.6865 85.9993 14.3421 84.4119 15.6534C82.8246 16.9302 81.5996 18.7591 80.7369 21.14C79.9088 23.521 79.4947 26.3679 79.4947 29.6805C79.4947 32.9932 79.9088 35.84 80.7369 38.221C81.5996 40.602 82.8246 42.4481 84.4119 43.7594C85.9993 45.0362 87.8972 45.6746 90.1056 45.6746Z" fill="black"/><path d="M0.941162 23.948V5.20612L17.3693 14.23V32.9719L0.941162 23.948Z" stroke="#186F65" stroke-width="0.941101"/><path d="M17.5193 52.0581L1.28833 42.6871L17.3173 32.9719L33.5483 42.3429L17.5193 52.0581Z" stroke="#186F65" stroke-width="0.941101"/><path d="M33.4502 42.3429V23.601L49.8783 32.6248V51.3668L33.4502 42.3429Z" stroke="#186F65" stroke-width="0.941101"/><path d="M33.5157 23.5981L17.2847 14.2272L33.3136 4.51195L49.5446 13.8829L33.5157 23.5981Z" stroke="#186F65" stroke-width="0.941101"/></svg>