<svg xmlns="http://www.w3.org/2000/svg" width="36" height="39" viewBox="0 0 36 39" fill="none"><g id="ph:projector-screen-light" clip-path="url(#clip0_110_224)"><path id="Vector" d="M33.4688 8.00892C34.1214 8.00892 34.7474 7.75211 35.2089 7.29499C35.6704 6.83787 35.9297 6.21789 35.9297 5.57142V2.78571C35.9297 2.13924 35.6704 1.51925 35.2089 1.06213C34.7474 0.605013 34.1214 0.348206 33.4688 0.348206H2.53125C1.87857 0.348206 1.25262 0.605013 0.791105 1.06213C0.329589 1.51925 0.0703125 2.13924 0.0703125 2.78571V5.57142C0.0703125 6.21789 0.329589 6.83787 0.791105 7.29499C1.25262 7.75211 1.87857 8.00892 2.53125 8.00892H2.88281V25.4196H1.125C0.845279 25.4196 0.577015 25.5297 0.379223 25.7256C0.181431 25.9215 0.0703125 26.1872 0.0703125 26.4643C0.0703125 26.7413 0.181431 27.007 0.379223 27.203C0.577015 27.3989 0.845279 27.5089 1.125 27.5089H16.9453V31.1373C16.0473 31.3895 15.2716 31.9548 14.7615 32.729C14.2513 33.5032 14.0411 34.4341 14.1696 35.3498C14.2981 36.2655 14.7567 37.1043 15.4607 37.7114C16.1647 38.3184 17.0666 38.6528 18 38.6528C18.9334 38.6528 19.8353 38.3184 20.5393 37.7114C21.2433 37.1043 21.7019 36.2655 21.8304 35.3498C21.9589 34.4341 21.7487 33.5032 21.2385 32.729C20.7284 31.9548 19.9527 31.3895 19.0547 31.1373V27.5089H34.875C35.1547 27.5089 35.423 27.3989 35.6208 27.203C35.8186 27.007 35.9297 26.7413 35.9297 26.4643C35.9297 26.1872 35.8186 25.9215 35.6208 25.7256C35.423 25.5297 35.1547 25.4196 34.875 25.4196H33.1172V8.00892H33.4688ZM19.7578 34.8214C19.7578 35.1658 19.6547 35.5024 19.4616 35.7887C19.2684 36.075 18.9939 36.2982 18.6727 36.43C18.3515 36.5617 17.9981 36.5962 17.6571 36.529C17.3161 36.4619 17.0029 36.296 16.757 36.0525C16.5112 35.8091 16.3438 35.4988 16.276 35.1611C16.2081 34.8234 16.2429 34.4733 16.376 34.1551C16.509 33.837 16.7343 33.5651 17.0234 33.3738C17.3125 33.1825 17.6523 33.0803 18 33.0803C18.4662 33.0803 18.9133 33.2638 19.243 33.5903C19.5726 33.9168 19.7578 34.3597 19.7578 34.8214ZM2.17969 5.57142V2.78571C2.17969 2.69335 2.21673 2.60478 2.28266 2.53948C2.34859 2.47418 2.43801 2.43749 2.53125 2.43749H33.4688C33.562 2.43749 33.6514 2.47418 33.7173 2.53948C33.7833 2.60478 33.8203 2.69335 33.8203 2.78571V5.57142C33.8203 5.66377 33.7833 5.75234 33.7173 5.81765C33.6514 5.88295 33.562 5.91963 33.4688 5.91963H2.53125C2.43801 5.91963 2.34859 5.88295 2.28266 5.81765C2.21673 5.75234 2.17969 5.66377 2.17969 5.57142ZM31.0078 25.4196H4.99219V8.00892H31.0078V25.4196Z" fill="black"/></g><defs><clipPath id="clip0_110_224"><rect width="36" height="39" fill="white"/></clipPath></defs></svg>