<svg xmlns="http://www.w3.org/2000/svg" width="40" height="40" viewBox="0 0 40 40" fill="none"><g id="streamline:interface-setting-hammer-construction-hammer-mallet-tool-tools-setting-edit-adjust" clip-path="url(#clip0_110_182)"><g id="Group"><path id="Vector" d="M18.2232 2.255L10.8289 9.64931C9.71312 10.7651 9.71312 12.5741 10.8289 13.6899L26.3044 29.1655C27.4202 30.2812 29.2293 30.2812 30.345 29.1655L37.7394 21.7711C38.8551 20.6554 38.8551 18.8463 37.7394 17.7305L22.2638 2.255C21.148 1.13921 19.339 1.13921 18.2232 2.255Z" stroke="black" stroke-width="2" stroke-linecap="round" stroke-linejoin="round"/><path id="Vector_2" d="M2.59997 31.6857C1.84221 32.4435 1.4165 33.4712 1.4165 34.5428C1.4165 35.6145 1.84221 36.6422 2.59997 37.4C3.35773 38.1577 4.38548 38.5834 5.45711 38.5834C6.52875 38.5834 7.5565 38.1577 8.31426 37.4L21.4285 24.2857L15.7143 18.5714L2.59997 31.6857Z" stroke="black" stroke-width="2" stroke-linecap="round" stroke-linejoin="round"/></g></g><defs><clipPath id="clip0_110_182"><rect width="40" height="40" fill="white"/></clipPath></defs></svg>