<svg width="106" height="122" viewBox="0 0 106 122" fill="none" xmlns="http://www.w3.org/2000/svg">
<g id="man 1" clip-path="url(#clip0_88_437)">
<g id="Group">
<g id="Group_2">
<path id="Vector" d="M44.7839 35.5763C44.6874 35.1655 44.5452 34.2104 43.9024 34.2817C43.0236 34.3789 42.8885 35.0715 42.8241 35.8439C42.7328 36.9408 42.8518 38.056 43.9636 38.4881C44.504 38.6981 44.9943 38.2568 45.1757 37.7948C45.4742 37.0374 44.9582 36.3162 44.7839 35.5763Z" fill="#444343"/>
<path id="Vector_2" d="M66.4797 36.197C66.3311 35.4298 66.3227 34.7054 65.9714 33.9992C65.6883 33.429 64.7541 33.4277 64.4717 33.9992C63.8888 35.1778 63.5394 37.5136 64.6023 38.4791C65.1363 38.9637 65.9483 38.886 66.3343 38.2542C66.7711 37.5421 66.6328 36.981 66.4797 36.197Z" fill="#444343"/>
<path id="Vector_3" d="M60.0632 39.1484C59.4648 38.47 58.5692 39.0803 58.4811 39.8086C58.3369 40.9995 58.9198 42.1017 58.0493 43.1494C57.2946 44.0572 56.0034 44.3404 54.8877 44.387C51.9268 44.5088 50.1871 42.7108 50.2572 39.8086C50.2701 39.2786 49.5006 39.0518 49.2516 39.5345C47.2024 43.5077 51.333 46.3529 54.8877 46.4546C56.6641 46.5058 58.5621 45.8715 59.7595 44.5153C60.9864 43.1248 61.3422 40.5991 60.0632 39.1484Z" fill="#444343"/>
<path id="Vector_4" d="M100.572 64.7189C100.52 64.7053 100.489 64.66 100.43 64.6587C100.197 64.6541 99.9746 64.6859 99.7469 64.7021C99.8209 59.2496 100.198 53.7654 99.8042 48.3214C99.5436 44.7272 100.055 40.6166 99.4104 37.1281C99.5719 36.5644 99.1357 35.8743 98.4337 36.0823C88.1266 39.1451 78.7267 43.9121 68.5984 47.2205C70.618 45.4782 72.229 43.3173 73.1555 40.7054C75.5895 41.3047 78.2087 40.3076 79.1802 37.7514C79.6268 36.5773 79.4916 35.284 78.6765 34.3063C77.6162 33.0337 75.8102 32.7616 74.2544 32.7609C74.138 32.7609 74.017 32.8108 73.898 32.8549C73.7732 31.8402 73.5956 30.8015 73.3054 29.7104C74.5967 29.597 75.8829 29.4577 77.1626 29.2821C79.8256 28.9173 79.1944 24.1912 76.5263 24.5469C76.2966 24.5774 76.0611 24.5884 75.8301 24.6162C76.857 19.1515 74.8682 13.4022 71.3733 9.22751C68.6351 5.95603 63.3753 2.59708 58.9868 4.05755C58.8909 3.55474 58.7532 3.09081 58.5062 2.73509C55.9326 -0.965979 50.1195 -0.323216 46.4979 1.23834C45.8892 1.50075 45.5823 2.27375 45.5592 2.88671C45.5405 3.37008 45.5283 3.89168 45.5129 4.39837C39.8478 4.27072 35.9476 12.0688 34.6576 16.6685C33.9839 19.0705 33.143 23.8497 34.4317 26.6864C33.1604 26.9437 31.9585 27.313 30.8969 27.8715C29.8823 28.4061 29.9743 29.908 30.8969 30.4653C32.212 31.2603 33.8733 31.5707 35.6452 31.6445C35.3872 32.7862 35.2488 33.8618 35.1646 34.9069C34.6872 34.7158 34.1383 34.6652 33.5522 34.8C32.2281 35.1052 31.2547 36.486 30.7889 37.6808C30.3134 38.8996 30.4118 40.4177 31.2849 41.4292C32.396 42.7166 34.6601 43.0309 36.1721 42.3661C37.9942 46.9173 41.9568 49.8635 46.6504 51.3045C32.8754 52.0769 17.4919 49.8538 7.63384 41.5257C6.90424 40.9095 6.06011 41.7071 6.42362 42.4607C5.58335 44.5101 6.16948 47.9371 6.15211 50.0138C6.11351 54.7386 6.24991 59.4492 6.67197 64.1585C4.95219 64.0788 2.90427 65.133 1.85168 66.3336C-0.916186 69.4917 0.203958 74.2898 4.14666 75.806C5.08601 76.1669 6.0318 76.2297 6.94413 76.0982C5.87159 79.0846 4.88785 83.7426 5.95459 86.593C6.16755 87.1625 6.65203 87.3575 7.08953 87.2688C8.83184 91.0942 14.5638 93.3569 17.9802 94.7104C25.1161 97.5381 32.2912 99.167 39.6323 100.05C39.3331 102.199 39.3968 104.362 39.438 106.532C39.5068 110.156 38.3789 109.913 35.5313 111.605C32.0769 113.657 30.2716 116.997 30.1326 120.97C30.1107 121.599 30.8004 122.171 31.411 121.951C35.9476 120.32 40.4256 120.074 45.1783 120.252C47.324 120.333 49.7715 120.29 50.8543 118.165C52.596 114.748 51.7969 110.168 51.2345 105.956C51.2333 105.952 51.2339 105.948 51.2333 105.944C51.0068 104.245 50.8157 102.601 50.8511 101.126C50.8537 101.023 50.8234 100.943 50.8003 100.857C51.9603 100.892 53.119 100.926 54.2906 100.938C56.8854 100.962 60.4749 101.134 64.5122 101.209C65.1318 106.927 65.5918 112.635 66.0769 118.366C66.1278 118.965 66.5305 119.444 67.1585 119.455C72.9007 119.548 78.7903 118.885 84.1646 121.35C85.001 121.734 85.8882 121.278 85.9487 120.319C86.3225 114.385 82.2306 108.724 76.2715 108.285C76.0244 105.9 76.1415 103.511 75.841 101.126C75.8353 101.083 75.8127 101.053 75.8024 101.012C86.6989 100.304 97.4944 97.6793 100.163 89.4193C100.249 89.1556 100.213 88.9152 100.129 88.6975C100.146 88.6139 100.171 88.5355 100.169 88.439C100.109 86.2042 99.9303 84.0141 100.036 81.7703C100.121 79.9671 100.396 78.147 100.432 76.3373C103.418 75.9252 105.305 73.2453 105.644 70.2265C105.974 67.2997 103.722 63.9855 100.572 64.7189ZM74.0492 34.7333C74.1187 34.7488 74.1837 34.7909 74.2557 34.7883C75.8565 34.7339 77.8664 35.1959 77.2507 37.2162C76.774 38.781 75.0928 39.3881 73.5808 39.3097C73.934 37.8965 74.0968 36.37 74.0492 34.7333ZM32.8824 40.1935C32.3761 39.7289 32.5054 38.978 32.7087 38.3579C33.0993 37.1683 33.9949 36.4108 35.0854 36.4536C35.0809 37.995 35.2707 39.4186 35.6207 40.732C34.6878 40.6749 33.6075 40.859 32.8824 40.1935ZM58.0789 12.5476C58.252 11.0742 59.0131 8.253 59.1032 5.86921C63.0723 6.36359 66.4302 8.49663 69.4393 11.1772C73.3247 14.6372 73.9096 19.9497 73.5724 24.8437C68.1351 25.3445 62.5975 25.3342 57.0637 25.386C57.0193 21.118 57.5835 16.7767 58.0789 12.5476ZM53.6582 3.59621C56.8893 3.69016 55.4565 7.04717 55.257 9.23011C54.7642 14.5886 53.9149 20.0398 54.0114 25.4333C52.7439 25.4586 51.4784 25.4994 50.2154 25.5551C50.382 22.2726 49.7856 18.9072 49.6196 15.6286C49.4253 11.7888 49.3996 7.95819 49.3648 4.11716C50.725 3.6163 52.2183 3.5541 53.6582 3.59621ZM37.2292 17.7007C38.3719 12.7478 41.2645 9.08561 45.4691 6.68108C45.3932 12.9526 45.8133 20.288 48.302 25.6601C47.3523 25.7178 46.402 25.7741 45.4575 25.8616C42.8499 26.1026 39.7088 26.0314 36.7364 26.3463C35.8633 23.9255 36.7209 19.9024 37.2292 17.7007ZM43.9707 47.9268C37.9942 45.0933 37.6062 37.5052 37.1584 31.6497C40.0762 31.5661 43.1368 31.0018 45.4575 30.7918C53.9915 30.0208 62.7197 30.4277 71.2627 29.8529C73.4547 40.9983 66.5897 49.2265 55.524 49.9658C51.5356 50.2322 47.5962 49.6458 43.9707 47.9268ZM5.70045 73.6204C-0.250919 72.6511 4.57902 63.6453 8.49856 66.8423C8.78036 67.0723 9.19664 66.9725 9.32339 66.6822C9.68047 66.9459 10.0176 67.2395 10.2666 67.6814C10.7549 68.549 10.56 69.6161 10.2505 70.498C9.629 72.2714 7.64156 73.9366 5.70045 73.6204ZM35.5171 118.671C34.904 118.171 34.269 117.7 33.6314 117.23C33.7877 116.986 33.9981 116.796 34.1724 116.571C35.0635 117.243 35.9862 117.858 36.9789 118.363C36.4899 118.455 36.0023 118.558 35.5171 118.671ZM38.2413 118.162C38.211 118.108 38.193 118.048 38.1345 118.012C36.9995 117.302 35.8549 116.617 34.7348 115.887C34.9799 115.622 35.263 115.39 35.5326 115.147C36.9693 115.994 38.2026 117.12 39.5962 118.022C39.1452 118.06 38.6936 118.099 38.2413 118.162ZM41.8378 117.959C41.4215 117.939 41.0014 117.957 40.5813 117.971C40.6231 117.801 40.6025 117.615 40.4127 117.494C38.9438 116.547 37.4673 115.562 35.8781 114.827C36.2757 114.492 36.7492 114.209 37.1887 113.904C38.3017 114.787 39.3981 115.693 40.5304 116.553C41.1436 117.02 41.7999 117.557 42.4979 118.007C42.2772 117.989 42.0521 117.969 41.8378 117.959ZM45.3803 118.16C45.3514 118.093 45.343 118.024 45.278 117.959C44.1637 116.855 42.5288 116.228 41.2041 115.39C40.1219 114.706 39.0455 114.023 37.9517 113.364C38.2908 113.148 38.6492 112.939 39.003 112.729C40.6565 113.49 42.2103 114.407 43.739 115.398C44.9673 116.194 46.164 117.148 47.4746 117.832C46.8621 118.071 46.1427 118.154 45.3803 118.16ZM48.8077 116.744C46.3943 114.737 43.1227 113.187 40.165 112.062C40.533 111.857 40.8946 111.652 41.2819 111.449C41.3804 111.397 41.4601 111.322 41.5348 111.245C42.7289 112.165 43.961 113.033 45.2452 113.823C46.3859 114.525 47.8156 115.607 49.2194 115.726C49.1184 116.115 48.9878 116.464 48.8077 116.744ZM48.9486 101.82C48.0047 101.378 47.03 101.016 46.0655 100.629C47.0268 100.69 47.9873 100.754 48.9557 100.795C48.9248 100.896 48.8971 101.001 48.9048 101.128C48.919 101.359 48.9344 101.589 48.9486 101.82ZM48.8591 103.528C48.9293 103.555 48.9943 103.555 49.0599 103.56C49.0837 103.927 49.1062 104.296 49.13 104.662C47.9468 104.104 46.7475 103.57 45.5926 102.963C44.0279 102.14 42.4535 101.348 40.8032 100.712C40.7826 100.537 40.7807 100.362 40.7563 100.186C41.6075 100.28 42.4651 100.346 43.3215 100.419C43.3614 100.495 43.3774 100.579 43.4572 100.641C45.0741 101.879 46.9637 102.808 48.8591 103.528ZM49.2535 106.609C49.269 106.867 49.2883 107.126 49.3031 107.384C46.8569 105.703 43.833 104.34 41.0818 103.84C41.0381 103.136 40.957 102.431 40.8933 101.727C43.7172 103.104 46.2495 105.689 49.2535 106.609ZM49.4022 114.05C48.3882 113.378 47.0248 113.047 45.9825 112.552C44.5343 111.864 43.1606 111.045 41.8417 110.135C41.8378 110.115 41.841 110.095 41.8359 110.076C41.6487 109.36 41.5296 108.641 41.428 107.922C43.9597 109.497 46.6362 111.516 49.4414 111.945C49.4363 112.647 49.4414 113.347 49.4022 114.05ZM45.1223 108.603C43.8491 107.997 42.5809 107.386 41.2967 106.808C41.2362 106.202 41.2054 105.597 41.1648 104.992C44.2402 105.991 46.5854 108.222 49.4112 109.67C49.4202 109.951 49.4459 110.233 49.4511 110.516C48.0806 109.762 46.5314 109.273 45.1223 108.603ZM66.3343 102.555C66.3118 102.549 66.3002 102.565 66.2783 102.561C66.1799 102.117 66.0911 101.671 65.9766 101.233C66.1413 101.234 66.3156 101.231 66.4823 101.233C66.5099 101.257 66.5054 101.291 66.5408 101.312C68.7477 102.651 71.3412 104.264 73.8929 104.792C73.8999 105.094 73.9128 105.394 73.9192 105.695C73.8793 105.661 73.8446 105.623 73.7899 105.599C71.3431 104.49 68.9149 103.322 66.3343 102.555ZM69.1935 101.234C70.663 101.222 72.1518 101.194 73.6593 101.128C73.7462 101.785 73.7893 102.441 73.8266 103.099C72.3108 102.415 70.737 101.867 69.1935 101.234ZM66.5518 103.81C68.8435 104.706 70.977 105.945 73.2842 106.808C73.5525 106.908 73.788 106.795 73.9398 106.603C73.9546 107.226 73.9771 107.848 74.0164 108.47C71.8198 107.523 69.6008 106.642 67.4679 105.797C67.244 105.708 67.0678 105.823 66.9404 105.985C66.8213 105.257 66.6914 104.533 66.5518 103.81ZM68.1564 117.313C68.1094 116.723 68.0592 116.128 68.0116 115.535C68.3597 115.793 68.7026 116.016 68.9169 116.175C69.4914 116.604 70.1026 116.976 70.7094 117.354C69.8652 117.35 69.0159 117.343 68.1564 117.313ZM73.6638 117.359C72.839 116.475 71.383 116 70.3581 115.439C69.4953 114.965 68.6827 114.429 67.8765 113.875C67.8308 113.335 67.7748 112.795 67.7247 112.254C69.9501 114.057 72.3198 115.922 74.8425 117.381C74.45 117.374 74.0588 117.361 73.6638 117.359ZM78.4809 117.567C74.9532 115.176 71.1269 113.163 67.585 110.768C67.5477 110.417 67.5033 110.067 67.4634 109.716C71.5078 112.029 75.2041 115.292 79.2382 117.678C78.9859 117.645 78.7337 117.592 78.4809 117.567ZM82.2743 114.783C82.7195 115.551 83.0631 116.393 83.2799 117.295C78.4397 113.767 72.7045 110.879 67.3135 108.419C67.2453 107.884 67.1475 107.356 67.0684 106.824C72.2696 109.14 76.9284 112.875 82.2743 114.783ZM98.0322 88.3003C97.993 88.358 97.9435 88.3956 97.9126 88.4649C92.4894 100.639 65.099 97.6651 54.2919 97.8018C46.2444 97.9022 38.2966 97.08 30.4144 95.4491C23.6562 94.0521 12.6877 91.426 7.94203 85.7325C8.00894 84.2876 7.79919 82.7824 7.84552 81.3336C7.90342 79.5278 8.09515 77.6707 7.98385 75.8656C9.91273 75.2241 11.5682 73.6457 12.4181 71.7336C13.7158 68.8159 12.2611 63.977 8.46575 64.2719C9.18184 58.7734 8.56804 52.7002 8.27981 47.1615C8.27788 47.1272 8.00508 45.333 7.63834 43.8531C16.8543 53.8244 36.0492 54.0641 48.2852 53.7246C64.664 53.2704 83.4337 47.354 97.4577 38.6073C96.7217 40.7086 97.1907 43.73 97.2827 45.5255C97.6153 51.9849 97.5523 58.3866 97.5626 64.857C97.5626 64.9891 97.598 65.0967 97.6327 65.2043C95.6498 66.0369 94.1886 67.7928 93.9158 70.1798C93.542 73.4416 95.6182 75.8617 98.6789 76.3088C97.5246 79.9522 97.017 84.802 98.0322 88.3003ZM99.2605 73.866C97.2763 73.8485 96.1387 72.0589 96.407 70.1967C96.7037 68.1388 98.2909 66.7075 100.179 66.1334C100.247 66.1788 100.291 66.2487 100.382 66.2714C102.574 66.8092 103.437 67.9211 103.263 70.2291C103.093 72.4826 101.412 73.8848 99.2605 73.866Z" fill="#444343"/>
</g>
</g>
</g>
<defs>
<clipPath id="clip0_88_437">
<rect width="106" height="122" fill="white"/>
</clipPath>
</defs>
</svg>
