<svg width="162" height="162" viewBox="0 0 162 162" fill="none" xmlns="http://www.w3.org/2000/svg">
<circle cx="81" cy="81" r="81" fill="#186F65"/>
<g clip-path="url(#clip0_170_450)">
<path d="M65 135C73.832 135 81 127.683 81 118.667V102.333H65C56.168 102.333 49 109.651 49 118.667C49 127.683 56.168 135 65 135Z" fill="#0ACF83"/>
<path d="M49 86.0001C49 76.9841 56.168 69.6667 65 69.6667H81V102.333H65C56.168 102.333 49 95.0161 49 86.0001Z" fill="#A259FF"/>
<path d="M49 53.3333C49 44.3173 56.168 37 65 37H81V69.6667H65C56.168 69.6667 49 62.3493 49 53.3333Z" fill="#F24E1E"/>
<path d="M81 37H97C105.832 37 113 44.3173 113 53.3333C113 62.3493 105.832 69.6667 97 69.6667H81V37Z" fill="#FF7262"/>
<path d="M113 86.0001C113 95.0161 105.832 102.333 97 102.333C88.168 102.333 81 95.0161 81 86.0001C81 76.9841 88.168 69.6667 97 69.6667C105.832 69.6667 113 76.9841 113 86.0001Z" fill="#1ABCFE"/>
</g>
<defs>
<clipPath id="clip0_170_450">
<rect width="64" height="98" fill="white" transform="translate(49 37)"/>
</clipPath>
</defs>
</svg>
