<svg width="38" height="35" viewBox="0 0 38 35" fill="none" xmlns="http://www.w3.org/2000/svg">
<g clip-path="url(#clip0_172_512)">
<path d="M1.79297 1.29639V33.7038M36.2691 1.29639V33.7038" stroke="black" stroke-width="2" stroke-linecap="round"/>
<path d="M19.0305 4.53711C15.4182 4.53711 13.6139 4.53711 12.4915 5.48665C11.3691 6.43618 11.3691 7.96257 11.3691 11.0186V23.9816C11.3691 27.0376 11.3691 28.564 12.4915 29.5135C13.6139 30.463 15.4182 30.463 19.0305 30.463C22.6429 30.463 24.4471 30.463 25.5695 29.5135C26.6919 28.564 26.6919 27.0376 26.6919 23.9816V11.0186C26.6919 7.96257 26.6919 6.43618 25.5695 5.48665C24.4471 4.53711 22.6429 4.53711 19.0305 4.53711Z" stroke="black" stroke-width="2"/>
</g>
<defs>
<clipPath id="clip0_172_512">
<rect width="36.7746" height="35" fill="white" transform="translate(0.644531)"/>
</clipPath>
</defs>
</svg>
