<svg width="38" height="39" viewBox="0 0 38 39" fill="none" xmlns="http://www.w3.org/2000/svg">
<g clip-path="url(#clip0_172_507)">
<path d="M35.2617 8.00886C35.9475 8.00886 36.6052 7.75205 37.0901 7.29493C37.575 6.83781 37.8475 6.21782 37.8475 5.57136V2.78564C37.8475 2.13918 37.575 1.51919 37.0901 1.06207C36.6052 0.604952 35.9475 0.348145 35.2617 0.348145H2.75564C2.06986 0.348145 1.41218 0.604952 0.92726 1.06207C0.442345 1.51919 0.169922 2.13918 0.169922 2.78564V5.57136C0.169922 6.21782 0.442345 6.83781 0.92726 7.29493C1.41218 7.75205 2.06986 8.00886 2.75564 8.00886H3.12502V25.4196H1.27808C0.984182 25.4196 0.702316 25.5296 0.494495 25.7255C0.286674 25.9214 0.169922 26.1872 0.169922 26.4642C0.169922 26.7413 0.286674 27.007 0.494495 27.2029C0.702316 27.3988 0.984182 27.5089 1.27808 27.5089H17.9005V31.1373C16.957 31.3894 16.142 31.9547 15.606 32.729C15.07 33.5032 14.8491 34.434 14.9841 35.3498C15.1191 36.2655 15.6009 37.1042 16.3406 37.7113C17.0803 38.3184 18.028 38.6528 19.0087 38.6528C19.9894 38.6528 20.9371 38.3184 21.6768 37.7113C22.4164 37.1042 22.8982 36.2655 23.0333 35.3498C23.1683 34.434 22.9474 33.5032 22.4114 32.729C21.8754 31.9547 21.0604 31.3894 20.1169 31.1373V27.5089H36.7393C37.0332 27.5089 37.3151 27.3988 37.5229 27.2029C37.7307 27.007 37.8475 26.7413 37.8475 26.4642C37.8475 26.1872 37.7307 25.9214 37.5229 25.7255C37.3151 25.5296 37.0332 25.4196 36.7393 25.4196H34.8924V8.00886H35.2617ZM20.8556 34.8214C20.8556 35.1657 20.7473 35.5023 20.5444 35.7887C20.3414 36.075 20.053 36.2981 19.7155 36.4299C19.378 36.5617 19.0066 36.5962 18.6484 36.529C18.2901 36.4618 17.961 36.296 17.7027 36.0525C17.4444 35.809 17.2685 35.4988 17.1972 35.161C17.126 34.8233 17.1626 34.4732 17.3023 34.1551C17.4421 33.8369 17.6789 33.565 17.9826 33.3737C18.2863 33.1824 18.6434 33.0803 19.0087 33.0803C19.4985 33.0803 19.9683 33.2637 20.3147 33.5902C20.661 33.9167 20.8556 34.3596 20.8556 34.8214ZM2.38625 5.57136V2.78564C2.38625 2.69329 2.42516 2.60472 2.49444 2.53942C2.56371 2.47412 2.65767 2.43743 2.75564 2.43743H35.2617C35.3597 2.43743 35.4537 2.47412 35.5229 2.53942C35.5922 2.60472 35.6311 2.69329 35.6311 2.78564V5.57136C35.6311 5.66371 35.5922 5.75228 35.5229 5.81758C35.4537 5.88289 35.3597 5.91957 35.2617 5.91957H2.75564C2.65767 5.91957 2.56371 5.88289 2.49444 5.81758C2.42516 5.75228 2.38625 5.66371 2.38625 5.57136ZM32.676 25.4196H5.34135V8.00886H32.676V25.4196Z" fill="black"/>
</g>
<defs>
<clipPath id="clip0_172_507">
<rect width="37.8253" height="39" fill="white" transform="translate(0.0957031)"/>
</clipPath>
</defs>
</svg>
