<svg width="43" height="40" viewBox="0 0 43 40" fill="none" xmlns="http://www.w3.org/2000/svg">
<path d="M19.1478 2.25481L11.3786 9.64913C10.2062 10.7649 10.2062 12.574 11.3786 13.6897L27.6388 29.1653C28.8111 30.2811 30.7119 30.2811 31.8843 29.1653L39.6535 21.771C40.8258 20.6552 40.8258 18.8461 39.6535 17.7304L23.3933 2.25481C22.2209 1.13903 20.3202 1.13903 19.1478 2.25481Z" stroke="black" stroke-width="2" stroke-linecap="round" stroke-linejoin="round"/>
<path d="M2.73175 31.6856C1.93557 32.4433 1.48828 33.4711 1.48828 34.5427C1.48828 35.6144 1.93557 36.6421 2.73175 37.3999C3.52794 38.1576 4.60779 38.5833 5.73376 38.5833C6.85973 38.5833 7.93959 38.1576 8.73577 37.3999L22.515 24.2856L16.511 18.5713L2.73175 31.6856Z" stroke="black" stroke-width="2" stroke-linecap="round" stroke-linejoin="round"/>
</svg>
